<svg width="27" height="20" viewBox="0 0 27 20" fill="none" xmlns="http://www.w3.org/2000/svg">
<g filter="url(#filter0_d_1_297)">
<path d="M16.7666 0.310303C17.2508 -0.114508 17.9705 -0.0979247 18.4346 0.327881L18.5303 0.425537L24.2334 6.92261C24.6303 7.37484 24.6304 8.05167 24.2344 8.50464L18.5322 15.0261C18.0778 15.5458 17.2873 15.5987 16.7676 15.1443C16.2829 14.7201 16.2044 14.004 16.5654 13.488L16.6494 13.3806L20.5107 8.9646H3.25C2.55964 8.9646 2 8.40496 2 7.7146C2.00003 7.06747 2.49185 6.53552 3.12207 6.47144L3.25 6.4646H20.5049L16.6514 2.07397C16.2265 1.58973 16.2431 0.870087 16.6689 0.406006L16.7666 0.310303Z" fill="white"/>
</g>
<defs>
<filter id="filter0_d_1_297" x="0" y="0" width="26.5312" height="19.4534" filterUnits="userSpaceOnUse" color-interpolation-filters="sRGB">
<feFlood flood-opacity="0" result="BackgroundImageFix"/>
<feColorMatrix in="SourceAlpha" type="matrix" values="0 0 0 0 0 0 0 0 0 0 0 0 0 0 0 0 0 0 127 0" result="hardAlpha"/>
<feOffset dy="2"/>
<feGaussianBlur stdDeviation="1"/>
<feColorMatrix type="matrix" values="0 0 0 0 0 0 0 0 0 0 0 0 0 0 0 0 0 0 0.182535 0"/>
<feBlend mode="normal" in2="BackgroundImageFix" result="effect1_dropShadow_1_297"/>
<feBlend mode="normal" in="SourceGraphic" in2="effect1_dropShadow_1_297" result="shape"/>
</filter>
</defs>
</svg>
