<svg width="60" height="60" viewBox="0 0 60 60" fill="none" xmlns="http://www.w3.org/2000/svg">
<g id="Active Icon">
<circle id="Oval" cx="30" cy="30" r="30" fill="url(#paint0_linear_1_351)"/>
<g id="Combined Shape" filter="url(#filter0_d_1_351)">
<path d="M39.8741 15.8843C41.0454 14.7128 42.9446 14.7133 44.1163 15.8843C45.1978 16.9657 45.2832 18.6683 44.3682 19.8453L44.1192 20.1265L34.2432 30.0025L44.1192 39.8785C45.2896 41.0502 45.2876 42.9495 44.1163 44.1207C43.0349 45.2011 41.3348 45.2842 40.1583 44.3697L39.8741 44.1207L30.0011 34.2447L20.128 44.1207C18.9566 45.2917 17.0573 45.2918 15.8858 44.1207C14.8043 43.0393 14.7218 41.3367 15.6368 40.1597L15.8858 39.8785L25.7589 30.0025L15.8858 20.1265C14.7144 18.9549 14.7143 17.0558 15.8858 15.8843C16.9674 14.803 18.67 14.7201 19.8468 15.6353L20.128 15.8843L30.0011 25.7574L39.8741 15.8843Z" fill="white"/>
</g>
</g>
<defs>
<filter id="filter0_d_1_351" x="9.00723" y="15.0059" width="41.9891" height="41.9927" filterUnits="userSpaceOnUse" color-interpolation-filters="sRGB">
<feFlood flood-opacity="0" result="BackgroundImageFix"/>
<feColorMatrix in="SourceAlpha" type="matrix" values="0 0 0 0 0 0 0 0 0 0 0 0 0 0 0 0 0 0 127 0" result="hardAlpha"/>
<feOffset dy="2"/>
<feGaussianBlur stdDeviation="1"/>
<feColorMatrix type="matrix" values="0 0 0 0 0 0 0 0 0 0 0 0 0 0 0 0 0 0 0.230622 0"/>
<feBlend mode="normal" in2="BackgroundImageFix" result="effect1_dropShadow_1_351"/>
<feBlend mode="normal" in="SourceGraphic" in2="effect1_dropShadow_1_351" result="shape"/>
</filter>
<linearGradient id="paint0_linear_1_351" x1="-27.7873" y1="37.3149" x2="35.0044" y2="94.9728" gradientUnits="userSpaceOnUse">
<stop stop-color="#A2A3B8"/>
<stop offset="0.999763" stop-color="#808191"/>
</linearGradient>
</defs>
</svg>
