<svg width="16" height="16" viewBox="0 0 16 16" fill="none" xmlns="http://www.w3.org/2000/svg">
<path d="M7.87306 3.77783C5.65084 3.77783 3.80957 5.58736 3.80957 7.84132C3.80957 10.0953 5.61909 11.9048 7.87306 11.9048C10.127 11.9048 11.9366 10.0635 11.9366 7.84132C11.9366 5.6191 10.0953 3.77783 7.87306 3.77783ZM7.87306 10.4445C6.44449 10.4445 5.26989 9.2699 5.26989 7.84132C5.26989 6.41275 6.44449 5.23815 7.87306 5.23815C9.30163 5.23815 10.4762 6.41275 10.4762 7.84132C10.4762 9.2699 9.30163 10.4445 7.87306 10.4445Z" fill="#DCDEF1"/>
<path d="M12.0952 4.60299C12.6036 4.60299 13.0158 4.19081 13.0158 3.68235C13.0158 3.1739 12.6036 2.76172 12.0952 2.76172C11.5867 2.76172 11.1746 3.1739 11.1746 3.68235C11.1746 4.19081 11.5867 4.60299 12.0952 4.60299Z" fill="#DCDEF1"/>
<path d="M14.4762 1.30159C13.6508 0.444444 12.4762 0 11.1429 0H4.60317C1.84127 0 0 1.84127 0 4.60317V11.1111C0 12.4762 0.444444 13.6508 1.33333 14.5079C2.19048 15.3333 3.33333 15.746 4.63492 15.746H11.1111C12.4762 15.746 13.619 15.3016 14.4444 14.5079C15.3016 13.6825 15.746 12.5079 15.746 11.1429V4.60317C15.746 3.26984 15.3016 2.12698 14.4762 1.30159ZM14.3492 11.1429C14.3492 12.127 14 12.9206 13.4286 13.4603C12.8571 14 12.0635 14.2857 11.1111 14.2857H4.63492C3.68254 14.2857 2.88889 14 2.31746 13.4603C1.74603 12.8889 1.46032 12.0952 1.46032 11.1111V4.60317C1.46032 3.65079 1.74603 2.85714 2.31746 2.28571C2.85714 1.74603 3.68254 1.46032 4.63492 1.46032H11.1746C12.127 1.46032 12.9206 1.74603 13.4921 2.31746C14.0317 2.88889 14.3492 3.68254 14.3492 4.60317V11.1429Z" fill="#DCDEF1"/>
</svg>
