<svg width="10" height="10" viewBox="0 0 10 10" fill="none" xmlns="http://www.w3.org/2000/svg">
<path fill-rule="evenodd" clip-rule="evenodd" d="M4.99631 2.20004V3.33138C5.98395 1.36528 9.86689 1.33195 9.99823 4.18142L10.0016 4.33138V9.33138L7.99698 9.33271V5.33204C7.99698 2.55542 5.10597 3.31046 4.99932 5.22869L4.99631 5.33071V9.33271H3.00098V2.20004H4.99631V3.33138V2.20004ZM1.99533 2.33008V9.33141H0V2.33008H1.99533ZM1.00013 0C1.55147 0 1.99813 0.446667 1.99813 0.998C1.99813 1.54867 1.55147 1.99533 1.00013 1.99533C0.449467 1.99533 0.0028 1.54867 0.0028 0.998C0.0028 0.446667 0.449467 0 1.00013 0Z" fill="#DFE1F2"/>
</svg>
