<svg width="18" height="17" viewBox="0 0 18 17" fill="none" xmlns="http://www.w3.org/2000/svg">
<path d="M16.9044 11.85C16.8294 11.85 16.8294 11.85 16.9044 11.85C16.6794 11.7 16.5294 11.7 16.3794 11.625H16.3044C15.5544 11.4 14.8794 10.875 14.3544 10.2C14.0544 9.825 13.8294 9.375 13.6794 9C13.6044 8.85 13.6794 8.775 13.6044 8.775C13.6044 8.775 13.6044 8.775 13.6794 8.7C13.8294 8.55 14.0544 8.4 14.2794 8.325C14.6544 8.175 15.0294 8.025 15.4044 7.725C15.4794 7.65 15.5544 7.575 15.6294 7.425C15.7044 7.2 15.7044 6.975 15.6294 6.75C15.3294 6.6 15.1044 6.45 15.0294 6.375C14.8044 6.225 14.4294 6.225 14.1294 6.3C14.0544 6.3 13.9794 6.375 13.9044 6.375C13.8294 6.375 13.7544 6.45 13.6794 6.45H13.6044C13.5294 6.45 13.4544 6.45 13.3794 6.45C13.3794 6.3 13.3794 6.15 13.3794 5.925C13.3794 5.775 13.3794 5.625 13.3794 5.475V5.4C13.3794 4.8 13.3794 4.2 13.3044 3.675V3.6C13.0794 2.55 12.4044 1.575 11.4294 0.825C10.7544 0.375 10.0044 0.075 9.17942 0C8.95442 0 8.72942 0 8.50442 0H8.35442C7.52942 0 6.32942 0.15 5.27942 0.975C4.60442 1.5 4.07942 2.175 3.77942 2.925C3.62942 3.825 3.62942 4.65 3.70442 5.325V5.7C3.70442 6 3.70442 6.225 3.70442 6.45C3.62942 6.45 3.47942 6.45 3.40442 6.375C3.32942 6.375 3.25442 6.375 3.10442 6.375C3.02942 6.375 2.95442 6.3 2.95442 6.3H2.87942C2.57942 6.225 2.27942 6.3 2.12942 6.45C2.12942 6.45 2.12942 6.45 2.05442 6.45C1.75442 6.675 1.60442 6.9 1.60442 7.2C1.60442 7.2 1.60442 7.275 1.60442 7.35C1.60442 7.575 1.75442 7.725 1.90442 7.875C1.97942 7.95 2.05442 7.95 2.05442 8.025L2.12942 8.1C2.42942 8.325 2.80442 8.4 3.10442 8.55L3.32942 8.475C3.55442 8.55 3.62942 8.7 3.62942 8.7C3.70442 8.925 3.47942 9.225 3.47942 9.3C3.10442 10.05 2.57942 10.65 1.90442 11.1C1.52942 11.325 1.15442 11.475 0.779423 11.625H0.704423C0.554423 11.625 0.329423 11.7 0.104423 12C0.104423 12 0.0294229 12.075 0.0294229 12.15C-0.0455771 12.45 0.0294228 12.675 0.179423 12.825C0.254423 12.975 0.404423 13.05 0.479423 13.05C0.854423 13.275 1.30442 13.35 1.67942 13.5H1.75442C1.75442 13.5 1.75442 13.5 1.82942 13.5L2.05442 13.575C2.12942 13.575 2.27942 13.65 2.35442 13.65C2.35442 13.725 2.42942 13.875 2.42942 13.95C2.42942 14.1 2.50442 14.175 2.50442 14.325C2.42942 14.625 2.57942 14.775 2.80442 14.85C3.02942 14.925 3.17942 14.85 3.25442 14.85C3.85442 14.775 4.45442 14.7 4.90442 14.775C5.27942 14.85 5.65442 15.15 6.10442 15.375C6.25442 15.45 6.40442 15.525 6.55442 15.675C7.00442 15.975 7.45442 16.2 8.12942 16.2C8.27942 16.2 8.35442 16.2 8.50442 16.2C8.80442 16.2 9.10442 16.2 9.40442 16.125C9.77942 16.125 10.1544 15.975 10.4544 15.75C10.6794 15.6 10.9044 15.45 11.1294 15.3C11.5044 15.075 11.8044 14.85 12.1794 14.7C12.2544 14.7 12.4044 14.625 12.6294 14.625H12.7794C13.2294 14.625 13.7544 14.625 14.2044 14.7H14.3544C14.5044 14.7 14.6544 14.625 14.7294 14.475C14.8044 14.4 14.8044 14.325 14.8794 14.25L14.9544 14.025C15.0294 13.875 15.0294 13.65 15.1044 13.65H15.1794H15.2544C15.7044 13.575 16.0794 13.5 16.3794 13.35L16.5294 13.275H16.6044C16.7544 13.2 16.9794 13.125 17.2044 12.825C17.2794 12.675 17.3544 12.45 17.3544 12.3C17.1294 12.15 17.0544 12 16.9044 11.85Z" fill="#DCDEF1"/>
</svg>
