<svg width="16" height="14" viewBox="0 0 16 14" fill="none" xmlns="http://www.w3.org/2000/svg">
<path d="M13.8767 1.58067L14.878 1.13966C15.0984 1.04262 15.3457 1.20398 15.3457 1.44472C15.3457 1.82508 15.1923 2.56814 14.7446 3.70601C14.644 5.61467 13.7437 8.4478 12.1348 10.4015C9.66872 13.3962 5.8851 14.1968 0.670536 12.0176C0.335689 11.8777 0.433915 11.3792 0.796818 11.3767C2.11446 11.3678 3.38688 11.0582 4.54029 10.484C3.40575 10.2002 2.50788 9.35965 2.08613 8.18903C2.07981 8.1715 2.07505 8.15389 2.07176 8.13633L1.94214 8.06065C0.789743 7.3546 0.0276806 5.9818 0.0832663 4.45257L0.318359 4.32604C-0.255609 3.16588 -0.0315664 1.70341 0.814023 0.981823C0.932335 0.88086 1.10475 0.875139 1.22949 0.968037C3.13102 2.38411 4.40231 3.01541 6.69712 3.61976C7.00079 0.0953879 11.0688 -1.36933 13.8767 1.58067Z" fill="#DFE1F2"/>
</svg>
