<svg width="40" height="32" viewBox="0 0 40 32" fill="none" xmlns="http://www.w3.org/2000/svg">
<path fill-rule="evenodd" clip-rule="evenodd" d="M31.6502 17.7425C33.245 16.9605 34.5194 15.8675 35.4512 14.4435C36.4054 12.9846 36.8808 11.3314 36.8808 9.4822C36.8808 6.73999 35.9103 4.47498 33.9718 2.68441C32.0309 0.894664 29.5927 0 26.6525 0H14.1729L17.5287 5.72888H26.2225C27.5291 5.72888 28.5645 6.07558 29.3264 6.7673C30.0874 7.45875 30.4697 8.35121 30.4697 9.44219C30.4697 10.5329 30.0874 11.4219 29.3264 12.1065C28.5645 12.7924 27.5291 13.1352 26.2225 13.1352H21.8643L32.9134 32H40C40 32 32.1489 18.5956 31.6502 17.7425Z" fill="#50C0E3"/>
<path fill-rule="evenodd" clip-rule="evenodd" d="M8.34981 14.2567C6.75512 15.0385 5.48075 16.1321 4.54857 17.5564C3.59494 19.0149 3.11912 20.6678 3.11912 22.5177C3.11912 25.2593 4.08982 27.5247 6.0284 29.3155C7.96938 31.1048 10.4075 32 13.348 32H25.8272L22.4709 26.2703H13.7778C12.471 26.2703 11.4356 25.9241 10.6742 25.2323C9.91262 24.541 9.53077 23.6487 9.53077 22.5577C9.53077 21.4668 9.91262 20.578 10.6742 19.893C11.4356 19.2072 12.471 18.8648 13.7778 18.8648H18.1351L7.08645 0H0C0 0 7.85155 13.4044 8.34981 14.2567Z" fill="#FFFFFE"/>
</svg>
